<svg width="583" height="301" viewBox="0 0 583 301" fill="none" xmlns="http://www.w3.org/2000/svg">
<path d="M0 65H579.5" stroke="white" stroke-width="5"/>
<path d="M3 144H582.5" stroke="white" stroke-width="5"/>
<path d="M3 221H582.5" stroke="white" stroke-width="5"/>
<path d="M73.2098 140.836C73.2098 140.836 51.0495 212.483 57.0217 227.727C62.9939 242.971 135.085 146.474 133.466 149.658C131.847 152.841 136.537 175.343 167.879 165.036C107.206 195.769 109.477 232.844 137.248 233.062C165.019 233.28 191.513 203.218 190.102 148.442C199.476 179.27 205.869 182.365 235.166 161.895M255.87 175.897C255.87 175.897 261.444 148.366 235.166 161.895M235.166 161.895C208.888 175.424 196.021 217.335 209.957 229.169C232.651 245.155 258.059 231.347 270.203 223.896" stroke="#364FC7" stroke-width="9" stroke-linecap="round"/>
<path d="M172.06 165.016C172.06 167.121 170.188 168.827 167.879 168.827C165.57 168.827 163.699 167.121 163.699 165.016C163.699 162.911 165.57 161.205 167.879 161.205C170.188 161.205 172.06 162.911 172.06 165.016Z" fill="#364FC7"/>
<path d="M194.356 148.248C194.356 150.353 192.484 152.059 190.175 152.059C187.867 152.059 185.995 150.353 185.995 148.248C185.995 146.143 187.867 144.437 190.175 144.437C192.484 144.437 194.356 146.143 194.356 148.248Z" fill="#364FC7"/>
<path d="M319.772 153.964H352.818H387.656V174.925H317.98L319.772 153.964Z" fill="#F76707"/>
<path d="M346.858 89.4812L363.235 60.8999L424.286 214.369L393.431 215.29L346.858 89.4812Z" fill="#F76707"/>
<rect width="6.82924" height="174.05" transform="matrix(0.930889 0.35862 -0.388616 0.924219 350.659 23.8225)" fill="#F76707"/>
<rect width="6.82924" height="174.05" transform="matrix(0.930889 0.35862 -0.388616 0.924219 360.383 27.9407)" fill="#F76707"/>
<rect width="6.82924" height="174.05" transform="matrix(0.930889 0.35862 -0.388616 0.924219 370.753 31.7449)" fill="#F76707"/>
<path d="M280.822 227.431L281.276 218.12L287.152 220.348L280.822 227.431Z" fill="black"/>
<path d="M380.265 26.2714C377.589 32.6142 371.579 29.3671 364.341 26.5693C357.103 23.7714 351.377 22.4823 354.053 16.1395C356.729 9.79668 363.946 8.8665 371.184 11.6644C378.422 14.4622 382.941 19.9286 380.265 26.2714Z" fill="#750000"/>
<path d="M308.272 197.021L282.047 187.08L281.283 214.663L289.145 217.644L308.272 197.021Z" fill="#F3C8AA"/>
<path d="M423.285 214.066L450.345 214.201L450.677 153.262L473.776 153.377L507.104 214.484L536.584 214.632L499.547 147.786L499.553 146.686C516.529 140.171 526.93 129.002 527.045 107.883C527.206 78.4031 509.466 63.5743 474.706 63.4009L424.107 63.1484L423.285 214.066ZM450.779 134.562L451.053 84.1831L471.513 84.2852C490.872 84.3818 499.194 91.4634 499.101 108.623C499.005 126.223 491.038 134.763 471.458 134.666L450.779 134.562Z" fill="#F76707"/>
</svg>
