<svg width="473" height="451" viewBox="0 0 473 451" fill="none" xmlns="http://www.w3.org/2000/svg">
<path d="M8 379V442.5C32.7983 442.5 46.7017 442.5 71.5 442.5" stroke="#FFD43B" stroke-width="15" stroke-linecap="round"/>
<path d="M401.244 442.744H464.744C464.744 417.946 464.744 404.042 464.744 379.244" stroke="#FFD43B" stroke-width="15" stroke-linecap="round"/>
<path d="M71.5 8L8 8C8 32.7983 8 46.7017 8 71.5" stroke="#FFD43B" stroke-width="15" stroke-linecap="round"/>
<path d="M464.744 71.7439V8.2439C439.945 8.2439 426.042 8.2439 401.244 8.2439" stroke="#FFD43B" stroke-width="15" stroke-linecap="round"/>
<path d="M211 224.5C211 225.324 211.3 226.036 211.9 226.635C212.5 227.235 213.212 227.534 214.037 227.534H232.482V245.966C232.482 246.765 232.782 247.47 233.382 248.082C233.982 248.694 234.694 249 235.519 249C236.344 249 237.05 248.694 237.637 248.082C238.224 247.47 238.518 246.765 238.518 245.966V227.534H257.001C257.801 227.534 258.5 227.235 259.1 226.635C259.7 226.036 260 225.324 260 224.5C260 223.676 259.7 222.964 259.1 222.365C258.5 221.765 257.801 221.466 257.001 221.466H238.518V203.034C238.518 202.235 238.224 201.53 237.637 200.918C237.05 200.306 236.344 200 235.519 200C234.694 200 233.982 200.306 233.382 200.918C232.782 201.53 232.482 202.235 232.482 203.034V221.466H214.037C213.212 221.466 212.5 221.765 211.9 222.365C211.3 222.964 211 223.676 211 224.5Z" fill="#FFD43B"/>
</svg>
